<svg xmlns="http://www.w3.org/2000/svg" xmlns:xlink="http://www.w3.org/1999/xlink" width="25" height="25" viewBox="0 0 25 25"><defs><linearGradient id="a"><stop offset="0" stop-color="#24f3d2"/><stop offset=".394" stop-color="#0674f0"/><stop offset=".507" stop-color="#6961b5"/><stop offset=".813" stop-color="#f34660"/><stop offset="1" stop-color="#ee078d"/></linearGradient><linearGradient id="b" x1="868.253" x2="937.656" y1="521.354" y2="588.736" gradientTransform="translate(-695.63 618.831) scale(.80097)" gradientUnits="userSpaceOnUse" xlink:href="#a"/></defs><g fill="#fff" transform="translate(4.5 -1031.862)"><rect width="25" height="25" x="-4.5" y="1031.862" fill="url(#b)" rx="5.283" ry="5.283"/><path d="M 7,0 C 3.13993,0 0,3.14 0,7 c 0,3.8601 3.13993,7 7,7 1.7503322,0 3.347588,-0.651187 4.576172,-1.716797 l 3.566406,3.566406 a 0.50004997,0.50004997 0 1 0 0.707031,-0.707031 L 12.283203,11.576172 C 13.348817,10.34759 14,8.7503458 14,7 14,3.14 10.86007,0 7,0 Z m 0,1 c 3.31963,0 6,2.6804 6,6 0,3.3197 -2.68037,6 -6,6 C 3.68037,13 1,10.3197 1,7 1,3.6804 3.68037,1 7,1 Z" color="#000" font-family="sans-serif" font-weight="400" overflow="visible" transform="translate(.5 1036.862)" white-space="normal" style="line-height:normal;text-indent:0;text-align:start;text-decoration-line:none;text-decoration-style:solid;text-decoration-color:#000;text-transform:none;block-progression:tb;isolation:auto;mix-blend-mode:normal"/></g></svg>